<svg xmlns="http://www.w3.org/2000/svg" viewBox="0 0 116.47 87.58"><defs><style>.cls-1{fill:#935f73;}</style></defs><title>ИКОНКА 4</title><g id="Слой_2" data-name="Слой 2"><g id="Objects"><path class="cls-1" d="M116.26,58.8a2.66,2.66,0,0,0-1.93-1.56l-5.1-1a5.09,5.09,0,0,0-1.74,0l-1.72.26a8.76,8.76,0,0,1-3.91-.32A91.52,91.52,0,0,1,83.5,47.88,68.31,68.31,0,0,1,78.14,36l-.08-.35c-.6-2.65-1.85-8.16-5.39-9.75a18.72,18.72,0,0,0-5.79-1.42A13,13,0,0,1,64.36,24c-.94-.31-2.16-1.1-2-4.24a10.94,10.94,0,0,0,1.48-2,17.21,17.21,0,0,0,2-8.21C65.86,3.82,62.79,0,58.22,0s-7.64,3.82-7.64,9.51a15.63,15.63,0,0,0,3.54,10v0c.21,3.32-1,4.13-2,4.45a13,13,0,0,1-2.52.46,18.72,18.72,0,0,0-5.79,1.42C40.26,27.47,39,33,38.41,35.63l-.08.35A68.31,68.31,0,0,1,33,47.88a91.52,91.52,0,0,1-18.36,8.26,8.73,8.73,0,0,1-3.9.32L9,56.2a5,5,0,0,0-1.73,0l-5.11,1A2.66,2.66,0,0,0,.21,58.8a2.69,2.69,0,0,0,.21,2.48l1.16,1.8a6.15,6.15,0,0,0,5,2.84l1,0a6.16,6.16,0,0,0,4-1.49l.77-.66a7.55,7.55,0,0,1,1.35-.9c.15,2.73,2.35,4.27,5.71,6.61.72.51,1.55,1.09,2.43,1.73,3.62,2.64,8.84,4.09,14.37,5.63,3.22.89,6.56,1.82,9.86,3,6.44,2.39,7.25,4.9,7.31,5.87a1.91,1.91,0,0,0,1.22,1.67,1.87,1.87,0,0,0,.69.13,1.92,1.92,0,0,0,1.9-1.67l1.05-8a3.27,3.27,0,0,0-1-2.81,3.23,3.23,0,0,0-2.86-.84l-1,.18-.26,0L58.19,73l5.17,1.35-.24,0-1-.18a3.29,3.29,0,0,0-3.86,3.65l1.05,8a1.92,1.92,0,0,0,1.9,1.67,1.84,1.84,0,0,0,.69-.13,1.94,1.94,0,0,0,1.23-1.67c0-1,.86-3.48,7.3-5.87,3.3-1.22,6.64-2.15,9.86-3,5.53-1.54,10.75-3,14.37-5.63.88-.64,1.71-1.22,2.44-1.73,3.35-2.34,5.55-3.88,5.7-6.61a7.55,7.55,0,0,1,1.35.9l.77.66a6.16,6.16,0,0,0,4,1.49l1,0a6.14,6.14,0,0,0,5-2.84l1.16-1.8A2.66,2.66,0,0,0,116.26,58.8Zm-44.51-.89a15.15,15.15,0,0,1-1.86-9.15.58.58,0,0,0,.06-.17,11.58,11.58,0,0,0,1.83-6.18A59.89,59.89,0,0,0,77,52.26a5.31,5.31,0,0,0,2,1.84,64.65,64.65,0,0,0,6.38,2.77l-.65.06C77.13,57.6,73,57.85,71.75,57.91Zm-3.51-9.58a3.74,3.74,0,0,1-3.24.54.76.76,0,1,0-.32,1.48,7.06,7.06,0,0,0,1.45.16A5,5,0,0,0,68.31,50a16.49,16.49,0,0,0,2,8.35c-7.44,3.66-13.65,3.45-17.6,2.6a21.36,21.36,0,0,1-6.51-2.52,16.5,16.5,0,0,0,2-8.45,4.93,4.93,0,0,0,2.22.49,7.15,7.15,0,0,0,1.46-.16.77.77,0,0,0,.57-.91.76.76,0,0,0-.9-.57,3.7,3.7,0,0,1-3.37-.65,5.2,5.2,0,0,1-.48-.65c-1-1.59-1.55-3.16-1.46-6.54,1.78-1.24,2.93-4.22,3.42-8.86A50.44,50.44,0,0,0,49.85,26l.56-.07c.36,8.6,3.64,15,7.78,15s7.42-6.38,7.79-15l.55.07a51.13,51.13,0,0,0,.23,6.23c.49,4.72,1.67,7.71,3.51,8.92.08,3.52-.59,5.06-1.62,6.74A4.12,4.12,0,0,1,68.24,48.33Zm-21.67.35a16.17,16.17,0,0,1-.79,7,13,13,0,0,1-1.05,2.27c-1.27-.06-5.39-.31-13-1l-.65-.06a62.58,62.58,0,0,0,6.38-2.77,5.24,5.24,0,0,0,2-1.84,59.13,59.13,0,0,0,5.21-9.85A11.66,11.66,0,0,0,46.57,48.68ZM58.22,1.51c3.72,0,6.13,3.14,6.13,8,0,5.57-2.86,10.64-6,10.64S52.1,15,52.1,9.51C52.1,4.65,54.5,1.51,58.22,1.51ZM52.59,25.44c1.89-.63,2.91-2.18,3-4.61a5.06,5.06,0,0,0,2.72.84A4.86,4.86,0,0,0,60.84,21c.17,2.36,1.19,3.86,3,4.48l.59.17a26.23,26.23,0,0,1-2.07,9.77c-1.18,2.52-2.71,4-4.21,4s-3-1.44-4.2-4a26,26,0,0,1-2.08-9.76ZM13.82,61.19a8.28,8.28,0,0,0-2.48,1.46l-.77.66A4.65,4.65,0,0,1,7.4,64.43l-.77,0a4.67,4.67,0,0,1-3.78-2.14L1.69,60.46a1.1,1.1,0,0,1-.17-.5,6.3,6.3,0,0,0,2.77.67A5.33,5.33,0,0,0,6.8,60a.76.76,0,1,0-.7-1.34,4.21,4.21,0,0,1-3.66,0l5.1-1a3.57,3.57,0,0,1,1.22,0l1.72.25a10.19,10.19,0,0,0,4.59-.37,93.27,93.27,0,0,0,18.84-8.5.75.75,0,0,0,.25-.25,69,69,0,0,0,5.65-12.51l.08-.35c.5-2.23,1.68-7.43,4.53-8.71a14.91,14.91,0,0,1,3.92-1.11A48.12,48.12,0,0,1,48.12,32a16.67,16.67,0,0,1-1.76,6.62c0-.54.11-1.11.19-1.73a.76.76,0,0,0-1.48-.3,53.23,53.23,0,0,1-6.86,14.83,3.86,3.86,0,0,1-1.44,1.31,82.59,82.59,0,0,1-9.43,3.89C19.12,56.4,14.58,57.92,13.82,61.19ZM53.5,75.91l1.13-.21a1.78,1.78,0,0,1,2.08,2l-1.05,8a.41.41,0,0,1-.4.36.32.32,0,0,1-.14,0,.4.4,0,0,1-.26-.35,3.5,3.5,0,0,0,0-.41c-.29-2.66-.26-5.77.3-6.42A.77.77,0,0,0,55,77.79a.76.76,0,0,0-1.07.08c-.25.28-.89,1.32-.87,4.39a18,18,0,0,0-6.54-3.77c-3.36-1.24-6.72-2.18-10-3.08a68.48,68.48,0,0,1-10.93-3.67A26,26,0,0,1,27,68.43c1.2-2.49,2.59-4.18,4-4.91,4,1.12,6.78,4.06,8.15,5.54l.56.59c1.12,1.12,5.33,3.32,8.66,5a11.49,11.49,0,0,0,3.23,1l1.65.26A.7.7,0,0,0,53.5,75.91Zm26.39-.5c-3.26.9-6.62,1.84-10,3.08a17.75,17.75,0,0,0-6.57,3.81,17.7,17.7,0,0,0-.5-4.3.78.78,0,0,0-.93-.54.76.76,0,0,0-.53.93,21,21,0,0,1,.29,6.84,4.16,4.16,0,0,0-.06.46.39.39,0,0,1-.25.35.4.4,0,0,1-.15,0,.41.41,0,0,1-.4-.36l-1-8a1.78,1.78,0,0,1,2.07-2l1.13.21a.76.76,0,0,0,.26,0l1.64-.26a11.49,11.49,0,0,0,3.23-1c3.33-1.66,7.54-3.86,8.66-5,.16-.15.34-.35.56-.59,1.36-1.45,4-4.33,8-5.49,3,1.6,4.78,6.69,5.28,8.29A72.2,72.2,0,0,1,79.89,75.41Zm16.34-7.14c-.73.52-1.57,1.1-2.46,1.75a15.74,15.74,0,0,1-1.83,1.14c-.55-1.7-2.06-5.76-4.63-8a12.37,12.37,0,0,1,2.79,0,.75.75,0,0,0,.83-.67.74.74,0,0,0-.67-.83c-7.34-.8-12,4.24-14.05,6.39-.2.22-.37.41-.52.55-.74.74-3.83,2.49-8.26,4.69a9.28,9.28,0,0,1-.86.37l-8.19-2.15a.81.81,0,0,0-.38,0l-8.1,2.15a8.08,8.08,0,0,1-.85-.37c-4.44-2.2-7.53-4-8.27-4.69L40.26,68c-2-2.15-6.71-7.19-14-6.39a.74.74,0,0,0-.67.83.76.76,0,0,0,.83.67,12.09,12.09,0,0,1,2.55,0c-2.52,2.18-4,6.12-4.62,7.9a16.77,16.77,0,0,1-1.6-1c-.89-.65-1.72-1.23-2.46-1.75-3.81-2.66-5.39-3.76-5-6.4v0c0-.05,0-.11,0-.16.59-3.38,7.86-3.65,12.16-3.51h0c1.28,0,2.68.13,4.15.26,8.12.73,12.29,1,13.27,1a21.29,21.29,0,0,0,7.4,3,25.6,25.6,0,0,0,5.36.57,30.27,30.27,0,0,0,13.92-3.59c.84,0,5-.26,13.32-1,1.47-.13,2.87-.22,4.15-.26h0c4.29-.14,11.56.13,12.15,3.51a.88.88,0,0,1,0,.16v0C101.62,64.51,100,65.61,96.23,68.27Zm18.55-7.81-1.16,1.81a4.67,4.67,0,0,1-3.78,2.14l-.77,0a4.6,4.6,0,0,1-3.17-1.12l-.77-.66a8.28,8.28,0,0,0-2.48-1.46c-.76-3.27-5.3-4.79-13.51-4.54a82.92,82.92,0,0,1-9.44-3.89,3.83,3.83,0,0,1-1.43-1.31A53,53,0,0,1,71.4,36.62a.75.75,0,0,0-1.47.3c.08.68.15,1.3.2,1.88A16,16,0,0,1,68.27,32,51,51,0,0,1,68,26.14a14.42,14.42,0,0,1,4,1.12c2.85,1.28,4,6.48,4.53,8.71l.09.35c.52,2.27,3.73,9.39,5.64,12.51a.75.75,0,0,0,.25.25,93.52,93.52,0,0,0,18.84,8.5A10.19,10.19,0,0,0,106,58l1.72-.25a3.63,3.63,0,0,1,1.23,0l5,1a4.18,4.18,0,0,1-3.68,0,.76.76,0,0,0-1,.32.75.75,0,0,0,.32,1,5.28,5.28,0,0,0,2.51.62,6.4,6.4,0,0,0,2.85-.71A1.19,1.19,0,0,1,114.78,60.46Z"/></g></g></svg>