<svg xmlns="http://www.w3.org/2000/svg" viewBox="0 0 103.38 77"><defs><style>.cls-1{fill:#935f73;}</style></defs><title>ИКОНКАс 3</title><g id="Слой_2" data-name="Слой 2"><g id="Objects"><path class="cls-1" d="M102.2,1.88a1.83,1.83,0,0,0-2.17.66c-.86,1.23-1.9,2.73-3,4.31l.43-4.95a.22.22,0,0,0,0-.08A1.82,1.82,0,0,0,96.07.05a1.8,1.8,0,0,0-2,1c-2.31,4.56-6.16,12.46-7.33,15.51A123.17,123.17,0,0,1,76.54,35a2.6,2.6,0,0,1-.38.43,8.9,8.9,0,0,1-1,.84c-.77.55-2.54,1.8-5.51,3.88-3.93-.7-18.23-2.54-21.47-1.73-1.2.3-4.14,0-7.88-.91A52.16,52.16,0,0,1,32,34.94c-2.83-1.31-7.22-.41-8.92,0l-.74-2.09,2.26-.57A3.34,3.34,0,0,0,27.17,29c0-3.6-.28-8.37-1.34-10.61-2.24-4.77-8.55-4.54-11.26-3.68a9.75,9.75,0,0,0-7,8.84c-.4-.12-.76-.16-1.22-.26A5,5,0,0,0,1,25.69C-3,32.36,6.73,45.54,7.15,46.1a.75.75,0,0,0,.6.3A.67.67,0,0,0,8,46.34a.75.75,0,0,0,.48-.79c0-.11-1.35-11.52-1.35-15.83A3.61,3.61,0,0,1,8,27.07a17.3,17.3,0,0,0,3.83,5.23,15.91,15.91,0,0,1,2.08,2.46c1.16,1.92.65,5.48.48,6.46a4.66,4.66,0,0,0-1.59,3.17C12.24,50.45,22.17,58.2,26.36,60,30,61.64,36.4,70,36.87,70.6S40.79,77,47.69,77h.44a5.58,5.58,0,0,0,1.75-.36,11.6,11.6,0,0,0,1.87.15,11.94,11.94,0,0,0,1.78-.13c3.09-.47,7.26-4.47,12.37-11.88a133.6,133.6,0,0,0,8.54-14.31l.55,0a5,5,0,0,0,2.74-1l.49-.37a3.13,3.13,0,0,0,1.16-3.34l.13-.09c.55-.3,6.85-3.83,9.87-9.63,1.05-2,2-4.16,2.88-6.25,1.45-3.34,3.08-7.12,4.26-7.51l2.62-.85a3.6,3.6,0,0,0,2.53-3.7l-.29-4.46a4.92,4.92,0,0,1,.12-1.43l1.85-7.87s0,0,0-.07A1.82,1.82,0,0,0,102.2,1.88ZM88.11,17.06c1.14-3,5-10.83,7.26-15.37a.32.32,0,0,1,.61.12l-.67,7.61c-2,3-3.86,5.85-4.74,7.43a107.39,107.39,0,0,1-8.1,11.41A102,102,0,0,0,88.11,17.06ZM31.39,36.31c3.11,1.44,13.75,4.43,17.15,3.58,2-.49,9.89.24,15.76,1-5.45.13-13.06.3-14.94.3h-.12a9.53,9.53,0,0,0-3.79.7,7.77,7.77,0,0,1-2.22.56H43a87.39,87.39,0,0,1-9.28-1.24c-.59-.86-2.54-2.94-8.35-5.17C27.2,35.73,29.7,35.54,31.39,36.31ZM28.34,39a18.45,18.45,0,0,1,2.76,1.73l-3.91-.7A4.42,4.42,0,0,0,28.34,39ZM5.64,29.72c0,3,.62,9.24,1,13a50.56,50.56,0,0,1-2.73-4.82C2.18,34.31.48,29.43,2.26,26.47a3.53,3.53,0,0,1,3-1.75A3.53,3.53,0,0,1,6,24.8a7.3,7.3,0,0,1,1.54.51l0,.19C6.68,26,5.64,27.22,5.64,29.72ZM15.2,34a17,17,0,0,0-2.28-2.72C11.08,29.33,9,27.15,9,24.53a8.39,8.39,0,0,1,6-8.36c2.2-.7,7.63-.94,9.43,2.88.72,1.53,1.16,5.17,1.2,10a1.83,1.83,0,0,1-1.4,1.81l-3.08.77a.81.81,0,0,0-.49.38.76.76,0,0,0,0,.61l1.27,3.55a.73.73,0,0,0,.47.45,44.57,44.57,0,0,1,4.55,1.75,4.27,4.27,0,0,1-3.26,1.06,19.73,19.73,0,0,0-2.29-.12,13.72,13.72,0,0,0-5.34.9C16.23,38.48,16.28,35.78,15.2,34Zm32.87,41.5c-5.64.21-8.92-4.16-9.71-5.36.73-1.69,4.23-9.21,10.17-13.44l12.26-8.52c2.61-.13,5.79-.28,7.32-.39a5.91,5.91,0,0,0,4,2.5c-.35.46-.67.92-.94,1.36C68.77,55.63,54.6,75.25,48.07,75.48Zm0-20.31c-1.21-.7-4.85-2.93-6.47-5.3,3.27-.54,5.68-1,6.1-1.13L58,48.29Zm16.59,8.74c-4.73,6.86-8.76,10.85-11.35,11.24-.25,0-.49.06-.74.08,5-3.32,11.14-10.67,15.28-16.21C66.84,60.64,65.76,62.31,64.65,63.91ZM77.32,47.83l-.5.37a3.52,3.52,0,0,1-1.92.72,9.1,9.1,0,0,1-1.28,0h0c-2.21-.11-3.69-.89-4.42-2.3a.77.77,0,0,0-.73-.41c-1,.09-3.75.24-8,.43h0c-5.9.28-12.87.58-12.94.58l-.12,0s-3.07.65-7.16,1.3c-5.48.88-15.4,2.13-20.22.73a.75.75,0,1,0-.42,1.45,23.91,23.91,0,0,0,6.43.69A95.42,95.42,0,0,0,40,50.13c1.45,2.59,5,4.95,6.75,6-5.08,4-8.23,10-9.41,12.57-1.93-2.46-7-8.58-10.36-10.06C23,56.9,13.84,49.57,14.3,44.52c.12-1.39,1.21-3.72,7.09-3.72a17.23,17.23,0,0,1,2.12.12c.94.17,16,3,19.46,3l.41,0A9.4,9.4,0,0,0,46,43.3a8.31,8.31,0,0,1,3.38-.61c2.57,0,15.68-.31,19.63-.4l3.08-.07h.07a3,3,0,0,1,1.78.58l3.37,2.4a1.64,1.64,0,0,1,0,2.64Zm1.45-3.54,0,0-.08.06a3.08,3.08,0,0,0-.47-.42l-3.36-2.4a4.57,4.57,0,0,0-2.67-.86H72l-.57,0C73.87,39,75.35,38,76,37.5a13.14,13.14,0,0,0,1.39-1.18.8.8,0,0,0,.13-.13h0a75.4,75.4,0,0,0,5.54-6.28c1.59.47,4.66,1.72,5.81,3.63-.28.59-.56,1.17-.86,1.74C85.16,40.8,78.83,44.26,78.77,44.29ZM100,11.43a6.61,6.61,0,0,0-.15,1.88l.29,4.46a2.1,2.1,0,0,1-1.47,2.16L96,20.78c-1.73.58-3.09,3.55-5.16,8.35-.41.94-.83,1.9-1.25,2.84a13.38,13.38,0,0,0-5.53-3.33,104.31,104.31,0,0,0,7.8-11.06c1.56-2.81,6.58-10.18,9.37-14.17a.32.32,0,0,1,.39-.12.31.31,0,0,1,.2.32Z"/></g></g></svg>