<svg xmlns="http://www.w3.org/2000/svg" viewBox="0 0 93.91 80.43"><defs><style>.cls-1{fill:#935f73;}</style></defs><title>ИКОНКА ЙОГА 1</title><g id="Слой_2" data-name="Слой 2"><g id="Objects"><path class="cls-1" d="M91.91,65.5A209.52,209.52,0,0,1,79.52,31a9.19,9.19,0,0,0-1.31-2.82V24.79A5.19,5.19,0,0,0,76,20.57c-.76-.54-1.51-1.1-2.24-1.67C63.6,4.05,57.4.27,57.14.11A.85.85,0,0,0,56.9,0C56.69,0,55.57-.14,54,1.59c-3.14,3.16-9.42,16.57-10,19.91-.38,2.39-4.07,7.86-5.56,9.94l-.12,0c-3.65,1-8.26,3.42-9.27,6.8a5.41,5.41,0,0,0,1.32,5.14,61,61,0,0,0,1.83,13l-.58.88a7.21,7.21,0,0,1-2.79,2.43,13,13,0,0,0-3.09,2.06c-.65.59-1.65,1.67-2.81,2.92l-1.44,1.55a39.43,39.43,0,0,0-5.89.41c-4.48.67-7.08,2.09-7.73,4.2S7.35,74.36,8,75.4l.09.14c-2.39.81-5,1.52-7.14,2A1.24,1.24,0,0,0,1.15,80c2.82.2,7.23.34,7.34.34a11.89,11.89,0,0,0,5.71-1.46l.16-.09a15.79,15.79,0,0,0,5.27.91L56,79.56a1.88,1.88,0,0,0,1.7-1.1v0a222.76,222.76,0,0,0,27.42,2c1.2,0,2.17,0,2.93,0h.25a4.39,4.39,0,0,0,2.26-.67,6.85,6.85,0,0,0,2.85-3.68C95,71.45,92.13,65.93,91.91,65.5Zm-5.54-8.94A12.44,12.44,0,0,0,80.19,58,129.29,129.29,0,0,0,78,45.17a.75.75,0,0,0-.39-.52L74,42.79a1.89,1.89,0,0,1-1-1.56,2,2,0,0,1,.47-1.38l1-1.25a5.11,5.11,0,0,0,.9-4.9l-.34-1a4.56,4.56,0,0,1-.16-2.14l.54-3.28.86.89a7.41,7.41,0,0,1,1.78,3.2A221.92,221.92,0,0,0,86.37,56.56ZM31,71.72a17,17,0,0,0-3.46-1.16c1.46-1.06,2.86-2.16,4.12-3.25l4.53-.92a21,21,0,0,0,1.62,2.29c1.31,1.56,3.63,4.14,4.61,5.23C39.84,73.7,33.77,73.09,31,71.72Zm4.17-7.19.24.47-1.14.23A7.84,7.84,0,0,0,35.2,64.53Zm3.48,2.77a21.89,21.89,0,0,1-2.44-4.09,4.72,4.72,0,0,0,.35-.83c1.13-1,6.84-6.15,11-10.64-.2.41-.36.76-.47,1a3,3,0,0,0,.17,2.56,6.91,6.91,0,0,0,2.35,2.4C48.38,59.62,44.19,65.27,38.68,67.3Zm10-12.65a1.5,1.5,0,0,1-.11-1.31c.19-.48.57-1.24,1.05-2.21.69-1.37,1.54-3.07,2.34-4.94l.11-.27c.27-.65.56-1.27.83-1.88a21.55,21.55,0,0,0,1.7-4.56,9,9,0,0,0,2.75,2.38,8.6,8.6,0,0,0,5.57.9,16.7,16.7,0,0,0-1.22,6.5,23.23,23.23,0,0,0,3.13,10.59.77.77,0,0,0,.65.37h.12a.77.77,0,0,0,.62-.58c.07-.31,1.68-7.54,1.47-10.84a22.11,22.11,0,0,0-2-6.78,9.69,9.69,0,0,0,5.83-5.22,11.51,11.51,0,0,0-.11-8.6c-.89-2-6-7.66-12.28-8.85a2.75,2.75,0,0,0-2.43.73q-.75.73-1.56,1.56c-.88.89-1.82,1.83-2.79,2.74l0-.8a5.77,5.77,0,0,1,.32-2c2.16-6.12,4.24-10.73,5.48-12.24A99.63,99.63,0,0,1,68.49,20.09l.27,1.54A4.21,4.21,0,0,0,70,24l3.82,3.62-.46,2.73a5.92,5.92,0,0,0,.23,2.86l.34,1a3.64,3.64,0,0,1-.64,3.45l-1.08,1.31A3.42,3.42,0,0,0,71.57,42a3.49,3.49,0,0,0,1.82,2.16l3.22,1.65c.39,1.89,2.24,10.82,2.09,13.41a21.92,21.92,0,0,0,1.62,9.18L62.69,64.35a10.05,10.05,0,0,0-6.77-5.64C52.39,57.86,49.47,56.23,48.66,54.65ZM45.49,34.39c-4.44.49-5.9-.33-6.38-.88a1.14,1.14,0,0,1-.28-.58l1.67-.47c3.72-1,5.58-1.53,8.77-3.66a46.53,46.53,0,0,0,6.93-6.1c.54-.55,1.06-1.06,1.55-1.55a1.2,1.2,0,0,1,1.08-.32c5.79,1.1,10.49,6.44,11.19,8a10.06,10.06,0,0,1,.1,7.38,8.45,8.45,0,0,1-5.37,4.54,8,8,0,0,1-6.66-.19,8.38,8.38,0,0,1-3.44-3.87c-.06-.13-.34-.8-.44-1l-.05-.09a5.86,5.86,0,0,0-2-2.29,4.49,4.49,0,0,0-3.56-.81A6.23,6.23,0,0,0,45.49,34.39Zm19,8.6a20,20,0,0,1,1.71,5.9,42.53,42.53,0,0,1-1,8.32,20.23,20.23,0,0,1-2-8A14.93,14.93,0,0,1,64.45,43ZM45.56,21.73c.49-3.05,6.6-16.14,9.54-19.09l0,0a3.25,3.25,0,0,1,1.42-1.08c1.1.76,7,5.15,16,18.33a.81.81,0,0,0,.16.16c.77.61,1.57,1.21,2.38,1.79a3.67,3.67,0,0,1,1.54,3v1.62l-.31-.33a1.42,1.42,0,0,0-1.63-.31,1.45,1.45,0,0,0-.36.25l-3.34-3.17a2.7,2.7,0,0,1-.8-1.49l-.31-1.74a.74.74,0,0,0-.15-.34A100.85,100.85,0,0,0,58.6,7.76a.77.77,0,0,0-.94,0c-.86.61-2.83,3.17-6.45,13.39a7.12,7.12,0,0,0-.4,2.5l0,2.1a26.17,26.17,0,0,1-2.42,1.84,21.6,21.6,0,0,1-7.53,3.24C42.44,28.5,45.18,24.16,45.56,21.73ZM32,43.14a.75.75,0,0,0-.18-.5,4.1,4.1,0,0,1-1.2-3.93c.68-2.26,3.71-4.2,6.81-5.32a2.67,2.67,0,0,0,.56,1.08c.89,1.05,2.61,1.58,5.13,1.58.36,0,.74,0,1.13,0-.16.24-.32.48-.48.74a21,21,0,0,0-2.43,5.81,11.36,11.36,0,0,1-2.41,4.77,82.58,82.58,0,0,0-5.46,7.36A59,59,0,0,1,32,43.14ZM9.27,74.56a4.47,4.47,0,0,1,.11-3.28c.81-2.63,7-3.39,10.72-3.53-.45.47-.9.93-1.36,1.38C17.67,69,17,69,17,69a.75.75,0,0,0-.12,1.5l.46,0a22.05,22.05,0,0,1-2.82,2.27A26.57,26.57,0,0,1,9.7,75,1.07,1.07,0,0,1,9.27,74.56ZM8.21,78.82c-1.27,0-3.09-.09-5.15-.21,4.45-1.14,9.57-2.87,12.23-4.56s6.21-5.54,8.82-8.35c1.14-1.23,2.12-2.28,2.72-2.83A11.89,11.89,0,0,1,29.57,61a8.57,8.57,0,0,0,3.37-2.94A112.83,112.83,0,0,1,40,48.36a12.73,12.73,0,0,0,2.77-5.42A19.38,19.38,0,0,1,45,37.54c1.28-2.08,2.64-3.33,3.93-3.61a3,3,0,0,1,2.39.58,4.54,4.54,0,0,1,1.85,2.7,1.08,1.08,0,0,1,0,.19c.16,1.89-.71,3.8-1.71,6-.29.62-1,2.2-1,2.23C49,48.92,39.16,58.07,35.4,61.41a.71.71,0,0,0-.25.47c0,.06-.25,1.49-2.6,2.6a1,1,0,0,0-.21.15,52.45,52.45,0,0,1-7,5.65l-.09.06a136.56,136.56,0,0,1-11.79,7.21A10.39,10.39,0,0,1,8.21,78.82Zm11.48-.63h-.06a14.28,14.28,0,0,1-3.44-.43c2.82-1.59,6.36-3.71,9.71-6a19.87,19.87,0,0,1,4.41,1.31,9.57,9.57,0,0,0-2.24,5.11Zm36.66-.36A.36.36,0,0,1,56,78l-26.44.11a8.74,8.74,0,0,1,2.2-4.5C36,75.08,43.26,75.49,43.6,75.51a.78.78,0,0,0,.47-.13c1.12-.77,3.07-1.64,3.66-1.2a.76.76,0,0,0,.37.15,27.08,27.08,0,0,0,4.34-.18,1.86,1.86,0,0,1,1.62.65l2.24,2.64A.35.35,0,0,1,56.35,77.83ZM92,75.57a5.44,5.44,0,0,1-1.86,2.61,3.53,3.53,0,0,1-2.08.71h0c-3.8.06-12.67.2-30.33-2a1.91,1.91,0,0,0-.28-.44l-2.24-2.64a3.37,3.37,0,0,0-2.93-1.18,27,27,0,0,1-3.85.2c-.78-.45-1.9-.37-3.33.25-.34.15-.67.32-.94.47,0,0-2.71-3-4.46-5,5.8-2.37,10-8.12,11.27-10a20.62,20.62,0,0,0,4.6,1.68,8.49,8.49,0,0,1,5.85,5.06.78.78,0,0,0,.55.49l19.21,4.43.15.26,2,3.37a.76.76,0,0,0,1.16.17.79.79,0,0,0,.12-1l-2-3.33a19.42,19.42,0,0,1-2.43-9.93c1.5-.82,4.77-2.23,6.86-1.49,1.07,2.61,2.23,5.27,3.48,7.92l0,0C91.54,68,93.11,72.31,92,75.57Z"/></g></g></svg>