<svg xmlns="http://www.w3.org/2000/svg" viewBox="0 0 103.38 77"><path d="M102.2 1.88a1.83 1.83 0 00-2.17.66c-.86 1.23-1.9 2.73-3 4.31l.43-4.95a.22.22 0 000-.08A1.82 1.82 0 0096.07.05a1.8 1.8 0 00-2 1c-2.31 4.56-6.16 12.46-7.33 15.51A123.17 123.17 0 0176.54 35a2.6 2.6 0 01-.38.43 8.9 8.9 0 01-1 .84c-.77.55-2.54 1.8-5.51 3.88-3.93-.7-18.23-2.54-21.47-1.73-1.2.3-4.14 0-7.88-.91a52.16 52.16 0 01-8.3-2.57c-2.83-1.31-7.22-.41-8.92 0l-.74-2.09 2.26-.57A3.34 3.34 0 0027.17 29c0-3.6-.28-8.37-1.34-10.61-2.24-4.77-8.55-4.54-11.26-3.68a9.75 9.75 0 00-7 8.84c-.4-.12-.76-.16-1.22-.26A5 5 0 001 25.69c-4 6.67 5.73 19.85 6.15 20.41a.75.75 0 00.6.3.67.67 0 00.25-.06.75.75 0 00.48-.79c0-.11-1.35-11.52-1.35-15.83A3.61 3.61 0 018 27.07a17.3 17.3 0 003.83 5.23 15.91 15.91 0 012.08 2.46c1.16 1.92.65 5.48.48 6.46a4.66 4.66 0 00-1.59 3.17C12.24 50.45 22.17 58.2 26.36 60 30 61.64 36.4 70 36.87 70.6S40.79 77 47.69 77h.44a5.58 5.58 0 001.75-.36 11.6 11.6 0 001.87.15 11.94 11.94 0 001.78-.13c3.09-.47 7.26-4.47 12.37-11.88a133.6 133.6 0 008.54-14.31h.55a5 5 0 002.74-1l.49-.37a3.13 3.13 0 001.16-3.34l.13-.09c.55-.3 6.85-3.83 9.87-9.63 1.05-2 2-4.16 2.88-6.25 1.45-3.34 3.08-7.12 4.26-7.51l2.62-.85a3.6 3.6 0 002.53-3.7l-.29-4.46a4.92 4.92 0 01.12-1.43l1.85-7.87V3.9a1.82 1.82 0 00-1.15-2.02zM88.11 17.06c1.14-3 5-10.83 7.26-15.37a.32.32 0 01.61.12l-.67 7.61c-2 3-3.86 5.85-4.74 7.43a107.39 107.39 0 01-8.1 11.41 102 102 0 005.64-11.2zM31.39 36.31c3.11 1.44 13.75 4.43 17.15 3.58 2-.49 9.89.24 15.76 1-5.45.13-13.06.3-14.94.3h-.12a9.53 9.53 0 00-3.79.7 7.77 7.77 0 01-2.22.56H43a87.39 87.39 0 01-9.28-1.24c-.59-.86-2.54-2.94-8.35-5.17 1.83-.31 4.33-.5 6.02.27zM28.34 39a18.45 18.45 0 012.76 1.73l-3.91-.7A4.42 4.42 0 0028.34 39zm-22.7-9.28c0 3 .62 9.24 1 13a50.56 50.56 0 01-2.73-4.82C2.18 34.31.48 29.43 2.26 26.47a3.53 3.53 0 013-1.75 3.53 3.53 0 01.74.08 7.3 7.3 0 011.54.51v.19c-.86.5-1.9 1.72-1.9 4.22zM15.2 34a17 17 0 00-2.28-2.72C11.08 29.33 9 27.15 9 24.53a8.39 8.39 0 016-8.36c2.2-.7 7.63-.94 9.43 2.88.72 1.53 1.16 5.17 1.2 10a1.83 1.83 0 01-1.4 1.81l-3.08.77a.81.81 0 00-.49.38.76.76 0 000 .61l1.27 3.55a.73.73 0 00.47.45 44.57 44.57 0 014.55 1.75 4.27 4.27 0 01-3.26 1.06 19.73 19.73 0 00-2.29-.12 13.72 13.72 0 00-5.34.9c.17-1.73.22-4.43-.86-6.21zm32.87 41.5c-5.64.21-8.92-4.16-9.71-5.36.73-1.69 4.23-9.21 10.17-13.44l12.26-8.52c2.61-.13 5.79-.28 7.32-.39a5.91 5.91 0 004 2.5c-.35.46-.67.92-.94 1.36-2.4 3.98-16.57 23.6-23.1 23.83zm0-20.31c-1.21-.7-4.85-2.93-6.47-5.3 3.27-.54 5.68-1 6.1-1.13l10.3-.47zm16.59 8.74c-4.73 6.86-8.76 10.85-11.35 11.24-.25 0-.49.06-.74.08 5-3.32 11.14-10.67 15.28-16.21-1.01 1.6-2.09 3.27-3.2 4.87zm12.66-16.1l-.5.37a3.52 3.52 0 01-1.92.72 9.1 9.1 0 01-1.28 0c-2.21-.11-3.69-.89-4.42-2.3a.77.77 0 00-.73-.41c-1 .09-3.75.24-8 .43-5.9.28-12.87.58-12.94.58h-.12s-3.07.65-7.16 1.3c-5.48.88-15.4 2.13-20.22.73a.75.75 0 10-.42 1.45 23.91 23.91 0 006.43.69A95.42 95.42 0 0040 50.13c1.45 2.59 5 4.95 6.75 6-5.08 4-8.23 10-9.41 12.57-1.93-2.46-7-8.58-10.36-10.06C23 56.9 13.84 49.57 14.3 44.52c.12-1.39 1.21-3.72 7.09-3.72a17.23 17.23 0 012.12.12c.94.17 16 3 19.46 3h.41A9.4 9.4 0 0046 43.3a8.31 8.31 0 013.38-.61c2.57 0 15.68-.31 19.63-.4l3.08-.07h.07a3 3 0 011.78.58l3.37 2.4a1.64 1.64 0 010 2.64zm1.45-3.54l-.08.06a3.08 3.08 0 00-.47-.42l-3.36-2.4a4.57 4.57 0 00-2.67-.86h-.76C73.87 39 75.35 38 76 37.5a13.14 13.14 0 001.39-1.18.8.8 0 00.13-.13 75.4 75.4 0 005.54-6.28c1.59.47 4.66 1.72 5.81 3.63-.28.59-.56 1.17-.86 1.74-2.85 5.52-9.18 8.98-9.24 9.01zM100 11.43a6.61 6.61 0 00-.15 1.88l.29 4.46a2.1 2.1 0 01-1.47 2.16l-2.67.85c-1.73.58-3.09 3.55-5.16 8.35-.41.94-.83 1.9-1.25 2.84a13.38 13.38 0 00-5.53-3.33 104.31 104.31 0 007.8-11.06c1.56-2.81 6.58-10.18 9.37-14.17a.32.32 0 01.39-.12.31.31 0 01.2.32z" fill="#935f73" data-name="Слой 2"/></svg>